# xmcd CD database file
#
# Track frame offsets:
#	150
#	32497
#	53102
#	73140
#	88385
#	102975
#	134045
#	149962
#	170777
#	199870
#	218970
#	236197
#	255987
#	287075
#	302412
#
# Disc length: 4295 seconds
#
# Revision: 0
# Processed by: cddbd v1.4PL0 Copyright (c) Steve Scherf et al.
# Submitted via: CDex 1.50beta10
#
DISCID=f410c50f
DTITLE=BLUES Chicago Style - Harmonica Aces
DYEAR=1997
DGENRE=Blues
TTITLE0=Carey Bell - Hoochie Coochie
TTITLE1=J T Burks - Minnie Sue
TTITLE2=J T Bucks - Partnership Woman
TTITLE3=John Wrencher - Now Darlin
TTITLE4=Easy Baby - Good Morning Mr Blues
TTITLE5=Carey Bell (w. Lefty Dizz) - That's Alight In The Dark
TTITLE6=Charlie Sayles - Little Walter's Blues
TTITLE7=MoJo Buford - Watchdog
TTITLE8=Carey Bell (w.Lurrie Bell) - Reconsider Baby
TTITLE9=Charlie Sayles - Lamp Post
TTITLE10=Charlie Sayles - Automobile
TTITLE11=Harmonica Hinds (w. Big Moose Walker) - Rambling Woman
TTITLE12=Harmonica Hinds (w. Big Moose Walker) - Burying Ground
TTITLE13=Steve Bell - New Harp In Town
TTITLE14=Walter Horton - Two Old Maids
EXTD=YEAR: 1997
EXTT0=
EXTT1=
EXTT2=
EXTT3=
EXTT4=
EXTT5=
EXTT6=
EXTT7=
EXTT8=
EXTT9=
EXTT10=
EXTT11=
EXTT12=
EXTT13=
EXTT14=
PLAYORDER=
